<svg width="175" height="165" viewBox="0 0 175 165" fill="none" xmlns="http://www.w3.org/2000/svg">
<g clip-path="url(#clip0)" filter="url(#filter0_b)">
<path d="M41.8629 38.6301C40.5729 38.6301 39.8125 39.2535 39.3493 40.4686C37.7292 44.7999 36.2078 49.7857 34.5543 54.1792L29.66 40.4381C29.2301 39.2227 28.3367 38.5996 27.014 38.5996C25.2612 38.5996 24.3684 39.4411 24.3684 41.0923C24.3684 41.4037 24.4344 41.7466 24.5335 42.0894L31.5449 60.4115C32.1732 62.063 33.1653 62.9042 34.5213 62.9042C35.9767 62.9042 37.0345 62.0005 37.7292 60.162L44.5088 42.1513C44.6409 41.9018 44.7402 41.5593 44.7402 41.2476C44.7402 39.9074 43.2188 38.6301 41.8629 38.6301Z" fill="#618EA8"/>
<path d="M60.6475 52.3097C63.3261 50.6892 64.5497 48.2898 64.5497 45.9218C64.5497 42.2137 61.4745 38.6614 55.9182 38.6614H49.337C47.1873 38.6614 46.0631 39.4714 46.0631 41.2478H46.0627V60.1622C46.0627 62.0007 46.9558 62.9044 48.7417 62.9044C50.4946 62.9044 51.3543 62.0007 51.3543 60.1622V53.5873H55.1905L59.3575 61.5642C59.9528 62.6549 60.8459 62.9352 61.7717 62.9352C63.4915 62.9352 64.2852 61.9378 64.2852 60.5358C64.2852 60.0063 64.0868 59.4454 63.8553 58.9156L60.6475 52.3097ZM56.15 48.6327H51.3546V43.6472H56.15C58.2333 43.6472 59.1264 44.769 59.1264 45.9218C59.1264 47.2306 58.0018 48.6327 56.15 48.6327Z" fill="#618EA8"/>
<path d="M174.197 104.127L171.357 86.4195C170.914 83.6516 168.435 81.6425 165.464 81.6425H156.851C153.653 74.416 146.319 69.2596 137.713 68.7189C137.352 68.6961 136.992 68.6737 136.632 68.6509C118.163 67.4907 98.9409 64.7452 80.4523 65.9068C79.8464 65.9449 79.2409 65.9828 78.6351 66.0209C80.6847 61.7038 81.8273 56.9242 81.8273 51.897C81.8273 32.7575 65.3012 17.1863 44.9882 17.1863C31.0264 17.1863 18.4287 24.4801 12.1113 36.2216C11.4717 37.4104 11.9758 38.8628 13.2379 39.4654C14.4992 40.068 16.0411 39.593 16.6806 38.4039C22.1205 28.2938 32.9671 22.013 44.9882 22.013C62.4766 22.013 76.7046 35.4186 76.7046 51.8967C76.7046 57.1535 75.255 62.0966 72.7149 66.3926C60.3714 67.168 48.0276 67.9432 35.6842 68.7186C30.9202 69.0178 26.5479 70.7345 23.049 73.4305C17.5434 68.4576 13.9131 61.638 13.3495 54.0033C13.2511 52.6734 12.0275 51.6712 10.6164 51.7633C9.20529 51.856 8.14065 53.0085 8.23901 54.3384C8.87344 62.9356 12.8536 70.9339 19.4566 76.9161C18.282 78.3551 17.2987 79.9406 16.5455 81.6425H8.80026C5.82927 81.6425 3.35078 83.6516 2.90661 86.4195L0.0669947 104.127C-0.192359 105.747 0.308649 107.387 1.44238 108.629C2.57578 109.87 4.22278 110.582 5.96065 110.582H11.8356L10.1192 123.304C9.31012 129.299 11.2781 135.338 15.5176 139.873C19.7571 144.407 25.8672 147.008 32.2809 147.008H50.0953C54.4039 147.008 58.6523 146.332 62.7223 144.999L85.8085 137.437H87.5875L110.674 144.999C112.01 145.437 113.47 144.771 113.934 143.512C114.399 142.253 113.692 140.877 112.356 140.44L88.8612 132.744C88.5906 132.656 88.3064 132.61 88.0201 132.61H85.3759C85.0897 132.61 84.8051 132.656 84.5349 132.744L61.0402 140.44C57.5124 141.595 53.8301 142.181 50.0953 142.181H32.2809C27.3379 142.181 22.629 140.177 19.3616 136.682C16.0942 133.187 14.5775 128.533 15.201 123.913L17.2803 108.501L20.8302 84.6204C22.9987 78.467 28.9532 73.9789 36.0245 73.5347C50.7223 72.6115 65.42 71.6882 80.1173 70.7652C98.8279 69.5899 118.405 72.3437 137.223 73.5254C137.272 73.5286 137.322 73.5315 137.371 73.5347C145.569 74.0498 152.27 79.9967 153.306 87.6757L158.195 123.913C158.818 128.533 157.302 133.187 154.034 136.682C150.767 140.176 146.058 142.181 141.115 142.181H130.051C128.637 142.181 127.49 143.262 127.49 144.594C127.49 145.927 128.637 147.008 130.051 147.008H141.116C147.53 147.008 153.64 144.407 157.879 139.872C162.119 135.338 164.087 129.299 163.278 123.304L161.561 110.582H168.304C170.042 110.582 171.689 109.87 172.822 108.628C173.955 107.388 174.456 105.747 174.197 104.127ZM15.0087 87.0673L12.4874 105.755H5.96099V105.756C5.62676 105.756 5.41982 105.584 5.32622 105.481C5.23262 105.379 5.08286 105.16 5.1329 104.849L7.97251 87.1407C8.03479 86.7517 8.38298 86.4695 8.8006 86.4695H15.1037C15.0707 86.6684 15.0356 86.8665 15.0087 87.0673ZM168.938 105.481C168.844 105.584 168.638 105.756 168.303 105.756H161.748L158.881 86.4699H165.464C165.881 86.4699 166.229 86.7521 166.292 87.1411L169.131 104.849C169.181 105.16 169.032 105.378 168.938 105.481Z" fill="#618EA8"/>
<path d="M96.128 81.6426H74.6248C73.2099 81.6426 72.0632 82.723 72.0632 84.0561C72.0632 85.3892 73.2102 86.4697 74.6248 86.4697H96.128C97.5425 86.4697 98.6895 85.3892 98.6895 84.0561C98.6895 82.723 97.5425 81.6426 96.128 81.6426Z" fill="#618EA8"/>
<path d="M129.912 96.7497C128.994 95.7363 127.377 95.6164 126.301 96.4823L113.909 106.455C112.833 107.321 112.706 108.845 113.625 109.858C114.131 110.417 114.85 110.704 115.574 110.704C116.162 110.704 116.754 110.514 117.236 110.125L129.628 100.152C130.704 99.2867 130.831 97.7631 129.912 96.7497Z" fill="#618EA8"/>
<path d="M142.908 101.385C141.99 100.372 140.373 100.252 139.297 101.118L108.347 126.027C107.271 126.893 107.144 128.416 108.063 129.43C108.57 129.989 109.289 130.276 110.012 130.276C110.601 130.276 111.192 130.085 111.674 129.697L142.625 104.788C143.7 103.922 143.827 102.399 142.908 101.385Z" fill="#618EA8"/>
<path d="M53.1316 96.7497C52.213 95.7363 50.5963 95.6164 49.5204 96.4823L37.1283 106.455C36.0527 107.321 35.9254 108.845 36.8444 109.858C37.3512 110.417 38.07 110.704 38.7933 110.704C39.3818 110.704 39.9733 110.514 40.4556 110.125L52.8477 100.152C53.9233 99.2867 54.0506 97.7631 53.1316 96.7497Z" fill="#618EA8"/>
<path d="M66.1284 101.385C65.2097 100.372 63.5927 100.252 62.5172 101.118L31.567 126.027C30.4915 126.893 30.3642 128.416 31.2831 129.43C31.7899 129.989 32.5088 130.276 33.232 130.276C33.8205 130.276 34.412 130.085 34.8943 129.697L65.8445 104.788C66.92 103.922 67.0473 102.399 66.1284 101.385Z" fill="#618EA8"/>
</g>
<defs>
<filter id="filter0_b" x="-4" y="-4" width="182.264" height="172.195" filterUnits="userSpaceOnUse" color-interpolation-filters="sRGB">
<feFlood flood-opacity="0" result="BackgroundImageFix"/>
<feGaussianBlur in="BackgroundImage" stdDeviation="2"/>
<feComposite in2="SourceAlpha" operator="in" result="effect1_backgroundBlur"/>
<feBlend mode="normal" in="SourceGraphic" in2="effect1_backgroundBlur" result="shape"/>
</filter>
<clipPath id="clip0">
<rect width="174.264" height="164.195" fill="white"/>
</clipPath>
</defs>
</svg>
