<svg width="157" height="152" viewBox="0 0 157 152" fill="none" xmlns="http://www.w3.org/2000/svg">
<g clip-path="url(#clip0)">
<path d="M101.29 147.097V129.566C101.29 128.528 101.51 127.523 101.946 126.579L110.328 108.32C111.05 106.743 111.419 105.066 111.419 103.338V98.0645H144.339V12.2581H126.613V0H98.7581C89.9483 0 82.2934 4.86372 78.5 11.9612C74.7066 4.86372 67.0517 0 58.2419 0H30.3871V12.2581H12.6613V98.0645H45.5806V102.879C45.5806 104.958 46.1321 107.015 47.1732 108.832L57.2874 126.454C57.9106 127.54 58.2419 128.776 58.2419 130.024V147.097H0V152H157V147.097H101.29ZM139.274 17.1613V93.1613H86.0968V95.6129C86.0968 99.6674 82.6879 102.968 78.5 102.968C78.1835 102.968 77.8768 102.892 77.5628 102.853C76.2237 97.4073 73.4355 92.3988 69.3638 88.2581H126.613V17.1613H139.274ZM35.4516 4.90323H58.2419C68.0136 4.90323 75.9677 12.6016 75.9677 22.0645V41.6774H81.0323V22.0645C81.0323 12.6016 88.9864 4.90323 98.7581 4.90323H121.548V83.3548H81.0323V46.5806H75.9677V83.3548H65.8387V71.0968C65.8387 62.9842 59.0246 56.3871 50.6452 56.3871C47.852 56.3871 45.5806 58.5861 45.5806 61.2903V83.3548H35.4516V4.90323ZM17.7258 93.1613V17.1613H30.3871V88.2581H45.5806V93.1613H17.7258ZM51.5997 106.451C50.9765 105.363 50.6452 104.128 50.6452 102.879V61.2903C56.2315 61.2903 60.7742 65.6884 60.7742 71.0968V86.8216L65.2254 91.1311C70.5212 96.2581 73.4355 103.073 73.4355 110.323H78.5C78.5 109.497 78.4394 108.68 78.3764 107.864C78.4184 107.864 78.4592 107.871 78.5 107.871C84.6155 107.871 89.7307 103.651 90.9053 98.0645H106.355V103.338C106.355 104.376 106.135 105.38 105.7 106.324L97.3176 124.583C96.8898 125.515 96.6264 126.491 96.4484 127.484H63.0072C62.7463 126.295 62.3259 125.14 61.7139 124.071L51.5997 106.451ZM63.3064 142.194H86.0968V137.29H63.3064V132.387H96.2258V137.29H91.1613V142.194H96.2258V147.097H63.3064V142.194Z" fill="#618EA8"/>
<path d="M98.7581 63.7419H103.823V68.6452H98.7581V63.7419Z" fill="#618EA8"/>
<path d="M108.887 63.7419H113.952V68.6452H108.887V63.7419Z" fill="#618EA8"/>
<path d="M88.6289 63.7419H93.6934V68.6452H88.6289V63.7419Z" fill="#618EA8"/>
<path d="M86.0967 73.5483H116.484V78.4516H86.0967V73.5483Z" fill="#618EA8"/>
<path d="M86.0967 53.9355H116.484V58.8388H86.0967V53.9355Z" fill="#618EA8"/>
<path d="M86.0967 36.7742H116.484V41.6774H86.0967V36.7742Z" fill="#618EA8"/>
<path d="M86.0967 26.9678H116.484V31.871H86.0967V26.9678Z" fill="#618EA8"/>
<path d="M86.0967 17.1614H116.484V22.0646H86.0967V17.1614Z" fill="#618EA8"/>
<path d="M53.1775 26.9678H58.242V31.871H53.1775V26.9678Z" fill="#618EA8"/>
<path d="M63.3064 26.9678H68.3709V31.871H63.3064V26.9678Z" fill="#618EA8"/>
<path d="M43.0483 26.9678H48.1129V31.871H43.0483V26.9678Z" fill="#618EA8"/>
<path d="M40.5161 17.1614H70.9032V22.0646H40.5161V17.1614Z" fill="#618EA8"/>
<path d="M40.5161 36.7742H70.9032V41.6774H40.5161V36.7742Z" fill="#618EA8"/>
<path d="M40.5161 46.5806H70.9032V51.4838H40.5161V46.5806Z" fill="#618EA8"/>
</g>
<defs>
<clipPath id="clip0">
<rect width="157" height="152" fill="white"/>
</clipPath>
</defs>
</svg>
