<svg width="164" height="170" viewBox="0 0 164 170" fill="none" xmlns="http://www.w3.org/2000/svg">
<path d="M156.312 82.6875H153.75V66.2931C153.75 60.7362 151.664 55.5141 147.874 51.5908C144.084 47.6622 139.046 45.5 133.688 45.5H130.688V42.6259C136.804 38.9444 140.938 32.0966 140.938 24.25C140.938 12.5333 131.741 3 120.438 3C109.134 3 99.9375 12.5333 99.9375 24.25C99.9375 32.0939 104.071 38.9444 110.188 42.6259V45.5H107.187C101.829 45.5 96.7907 47.6622 93.0008 51.5908C89.2109 55.5167 87.125 60.7362 87.125 66.2931V82.6875H82V74.7188C82 73.2498 80.852 72.0625 79.4375 72.0625H71.75V71.1514C71.75 63.4058 74.2715 56.0666 78.8917 50.1192C79.8449 50.5575 80.893 50.8125 82 50.8125C86.2384 50.8125 89.6875 47.2372 89.6875 42.8438C89.6875 38.4503 86.2384 34.875 82 34.875C77.7616 34.875 74.3125 38.4503 74.3125 42.8438C74.3125 44.14 74.6405 45.3433 75.1709 46.427C69.6385 53.3784 66.625 62.0245 66.625 71.1514V72.0625H58.9375C57.523 72.0625 56.375 73.2498 56.375 74.7188V82.6875H53.8125C52.398 82.6875 51.25 83.8748 51.25 85.3438V95.9688C51.25 97.4377 52.398 98.625 53.8125 98.625H56.375V114.562C49.3102 114.562 43.5625 120.52 43.5625 127.844C43.5625 131.788 45.264 135.297 47.9059 137.733C43.8931 139.63 40.5644 142.817 38.4375 146.799C36.3106 142.82 32.9819 139.632 28.9691 137.733C31.611 135.297 33.3125 131.788 33.3125 127.844C33.3125 120.52 27.5648 114.562 20.5 114.562C13.4352 114.562 7.6875 120.52 7.6875 127.844C7.6875 131.788 9.389 135.297 12.0309 137.733C4.94563 141.083 0 148.477 0 157.062V165.031C0 166.5 1.148 167.688 2.5625 167.688H110.188C111.602 167.688 112.75 166.5 112.75 165.031V162.375H151.188C152.602 162.375 153.75 161.188 153.75 159.719V98.625H156.312C157.727 98.625 158.875 97.4377 158.875 95.9688V85.3438C158.875 83.8748 157.727 82.6875 156.312 82.6875ZM82 40.1875C83.4119 40.1875 84.5625 41.3775 84.5625 42.8438C84.5625 44.31 83.4119 45.5 82 45.5C80.5881 45.5 79.4375 44.31 79.4375 42.8438C79.4375 41.3775 80.5881 40.1875 82 40.1875ZM148.625 66.2931V82.6875H143.5V72.0625H138.375V82.6875H123V63.0791L129.542 66.4684C129.901 66.657 130.295 66.75 130.688 66.75C131.021 66.75 131.354 66.6836 131.669 66.5481C132.356 66.2533 132.884 65.6636 133.119 64.9358L137.493 51.3358C140.025 52.0238 142.352 53.3784 144.253 55.3494C147.072 58.2713 148.625 62.1573 148.625 66.2931ZM111.469 50.8125L116.545 57.8277L111.684 60.3484L108.619 50.8125H111.469ZM129.406 50.8125H132.258L129.194 60.3484L124.333 57.8277L129.406 50.8125ZM120.438 8.3125C127.971 8.3125 134.244 13.9623 135.551 21.3866C130.698 20.7491 126.206 18.5019 122.693 14.8602L122.254 14.4033C121.293 13.4019 119.587 13.4019 118.626 14.4033L118.19 14.8575C114.674 18.5019 110.182 20.7491 105.329 21.3839C106.631 13.9623 112.904 8.3125 120.438 8.3125ZM105.255 26.7655C110.887 26.1864 116.156 23.825 120.438 19.9469C124.719 23.8223 129.985 26.1864 135.62 26.7655C134.454 34.3623 128.089 40.1875 120.438 40.1875C112.786 40.1875 106.421 34.3623 105.255 26.7655ZM120.438 45.5C122.211 45.5 123.92 45.2423 125.562 44.8014V47.2717L120.438 54.3533L115.312 47.2717V44.8014C116.955 45.2423 118.664 45.5 120.438 45.5ZM92.25 66.2931C92.25 62.1573 93.8029 58.2686 96.6242 55.3467C98.5256 53.3784 100.852 52.0211 103.384 51.3331L107.758 64.9331C107.994 65.6609 108.522 66.2506 109.209 66.5455C109.521 66.6836 109.854 66.75 110.188 66.75C110.58 66.75 110.974 66.657 111.333 66.4711L117.875 63.0791V82.6875H102.5V72.0625H97.375V82.6875H92.25V66.2931ZM61.5 77.375H76.875V82.6875H61.5V77.375ZM48.6875 127.844C48.6875 123.45 52.1366 119.875 56.375 119.875C60.6134 119.875 64.0625 123.45 64.0625 127.844C64.0625 132.237 60.6134 135.812 56.375 135.812C52.1366 135.812 48.6875 132.237 48.6875 127.844ZM12.8125 127.844C12.8125 123.45 16.2616 119.875 20.5 119.875C24.7384 119.875 28.1875 123.45 28.1875 127.844C28.1875 132.237 24.7384 135.812 20.5 135.812C16.2616 135.812 12.8125 132.237 12.8125 127.844ZM5.125 157.062C5.125 148.273 12.0207 141.125 20.5 141.125C28.9793 141.125 35.875 148.273 35.875 157.062V162.375H5.125V157.062ZM41 157.062C41 148.273 47.8957 141.125 56.375 141.125C64.8543 141.125 71.75 148.273 71.75 157.062V162.375H41V157.062ZM107.625 162.375H76.875V157.062C76.875 148.273 83.7707 141.125 92.25 141.125C100.729 141.125 107.625 148.273 107.625 157.062V162.375ZM84.5625 127.844C84.5625 123.45 88.0116 119.875 92.25 119.875C96.4884 119.875 99.9375 123.45 99.9375 127.844C99.9375 132.237 96.4884 135.812 92.25 135.812C88.0116 135.812 84.5625 132.237 84.5625 127.844ZM148.625 157.062H112.75C112.75 148.477 107.804 141.083 100.719 137.733C103.361 135.297 105.062 131.788 105.062 127.844C105.062 120.52 99.3148 114.562 92.25 114.562C85.1852 114.562 79.4375 120.52 79.4375 127.844C79.4375 131.788 81.139 135.297 83.7809 137.733C79.7681 139.63 76.4394 142.817 74.3125 146.799C72.1856 142.82 68.8569 139.632 64.8441 137.733C67.486 135.297 69.1875 131.788 69.1875 127.844C69.1875 122.412 66.0177 117.745 61.5 115.689V98.625H148.625V157.062ZM153.75 93.3125H56.375V88H153.75V93.3125Z" fill="#618EA8"/>
<path d="M10.25 55.7812H51.25C55.4884 55.7812 58.9375 52.2059 58.9375 47.8125V43.5997L68.4367 33.753C69.4386 32.7144 69.4386 31.0356 68.4367 29.997L58.9375 20.1503V15.9375C58.9375 11.5441 55.4884 7.96875 51.25 7.96875H10.25C6.01162 7.96875 2.5625 11.5441 2.5625 15.9375V47.8125C2.5625 52.2059 6.01162 55.7812 10.25 55.7812ZM7.6875 15.9375C7.6875 14.4713 8.83806 13.2812 10.25 13.2812H51.25C52.6619 13.2812 53.8125 14.4713 53.8125 15.9375V21.25C53.8125 21.9566 54.0816 22.6312 54.5633 23.128L63.0016 31.875L54.5633 40.622C54.0816 41.1188 53.8125 41.7934 53.8125 42.5V47.8125C53.8125 49.2788 52.6619 50.4688 51.25 50.4688H10.25C8.83806 50.4688 7.6875 49.2788 7.6875 47.8125V15.9375Z" fill="#618EA8"/>
<path d="M12.8125 18.5938H48.6875V23.9062H12.8125V18.5938Z" fill="#618EA8"/>
<path d="M12.8125 39.8438H48.6875V45.1562H12.8125V39.8438Z" fill="#618EA8"/>
<path d="M17.9375 29.2188H43.5625V34.5312H17.9375V29.2188Z" fill="#618EA8"/>
</svg>
